# xmcd
#
# Track frame offsets:
#	150
#	12862
#	25825
#	35502
#	48807
#	66265
#	82715
#	92810
#	107807
#	119100
#	136185
#	151512
#	166522
#	180685
#	193680
#	206632
#	221865
#	234647
#	247932
#	263395
#	279245
#	292465
#	307617
#
# Disc length: 4350
#
# Revision: 2
# Processed by: cddbd v1.5.1PL0 Copyright (c) Steve Scherf et al.
# Submitted via: CDex 1.40Release
# Normalized: r1:TDELIM( - )
#
DISCID=3210fc17
DTITLE=50 Years Of Country Music From Mercury - Disc 3
DYEAR=1995
DGENRE=Country
TTITLE0=Billy Joe Shaver - Chicken On The Ground
TTITLE1=Jerry Lee Lewis - Would You Take Another Chance On Me
TTITLE2=Johnny Rodriguez - Ridin' My Thumb To Mexico
TTITLE3=Jerry Kennedy and Friends - She Even Woke Me Up To Say Goodbye
TTITLE4=Jo-El Sonnier - Come On Joe
TTITLE5=Sonny Throckmorton - Last Cheater's Waltz
TTITLE6=The Kendalls - Teach Me To Cheat
TTITLE7=Merle Haggard and Leona Williams - Sally Let Your Bangs Hang Down
TTITLE8=The Statler Brothers - Oh Baby Mine (I Get So Lonely)
TTITLE9=Johnny Paycheck - Old Violin
TTITLE10=Kathy Mattea - Eighteen Wheels And A Dozen Roses
TTITLE11=Larry Boone - Don't Give Candy To A Stranger
TTITLE12=Donna Fargo - Our Last Night
TTITLE13=Wayne Toups - Johnnie Can't Dance
TTITLE14=Kentucky Headhunters - Dumas Walker
TTITLE15=Johnny Cash - Goin' By The Book
TTITLE16=Normaltown Flyers - Rockin' The Love Boat
TTITLE17=Sammy Kershaw - Cadillac Style
TTITLE18=Billy Ray Cyrus - Achy Breaky Heart
TTITLE19=Toby Keith - Should've Been A Cowboy
TTITLE20=John and Audrey Wiggins - Falling Out Of Love
TTITLE21=Wesley Dennis - (That's Why They Call It Cheatin') It Ain't Fair
TTITLE22=Shania Twain - Any Man Of Mine
EXTD=YEAR: 1995 ID3G: 2
EXTT0=
EXTT1=
EXTT2=
EXTT3=
EXTT4=
EXTT5=
EXTT6=
EXTT7=
EXTT8=
EXTT9=
EXTT10=
EXTT11=
EXTT12=
EXTT13=
EXTT14=
EXTT15=
EXTT16=
EXTT17=
EXTT18=
EXTT19=
EXTT20=
EXTT21=
EXTT22=
PLAYORDER=
